<svg xmlns="http://www.w3.org/2000/svg" width="310" height="245" viewBox="0 0 310 245">
    <g fill="none" fill-rule="evenodd">
        <path fill="#F8D559" fill-rule="nonzero" d="M308.775.18L169.566 27.787l-93.663-3.19L.825 169.867l98.179 74.519 152.526-36.821 57.63-120.014z"/>
        <path fill="#303030" d="M139.126 66.8h39.757V17.2h-39.757v12.404h39.757v6.2h-39.757V66.8zm-6.118-49.6c0-3.425 2.742-6.2 6.118-6.2l39.757.003c3.378 0 6.117 2.785 6.117 6.2V66.8c0 3.424-2.74 6.2-6.118 6.2h-39.765c-3.379 0-6.118-2.784-6.117-6.2l.008-49.6zm9.176 38.75c0-1.71 1.374-3.096 3.055-3.096h3.065c1.687 0 3.055 1.392 3.055 3.097v3.106c0 1.71-1.374 3.097-3.055 3.097h-3.065c-1.687 0-3.055-1.392-3.055-3.097v-3.106zm24.466-12.4c0-1.71 1.374-3.096 3.055-3.096h3.065c1.687 0 3.055 1.392 3.055 3.097v3.106c0 1.71-1.373 3.097-3.055 3.097h-3.065c-1.687 0-3.055-1.392-3.055-3.097v-3.106zm-24.466 0c0-1.71 1.374-3.096 3.055-3.096h3.065c1.687 0 3.055 1.392 3.055 3.097v3.106c0 1.71-1.374 3.097-3.055 3.097h-3.065c-1.687 0-3.055-1.392-3.055-3.097v-3.106zm24.466 12.4c0-1.71 1.374-3.096 3.055-3.096h3.065c1.687 0 3.055 1.392 3.055 3.097v3.106c0 1.71-1.373 3.097-3.055 3.097h-3.065c-1.687 0-3.055-1.392-3.055-3.097v-3.106zm-12.233-12.4c0-1.71 1.374-3.096 3.055-3.096h3.065c1.687 0 3.055 1.392 3.055 3.097v3.106c0 1.71-1.374 3.097-3.055 3.097h-3.065c-1.687 0-3.055-1.392-3.055-3.097v-3.106zm0 12.4c0-1.71 1.374-3.096 3.055-3.096h3.065c1.687 0 3.055 1.392 3.055 3.097v3.106c0 1.71-1.374 3.097-3.055 3.097h-3.065c-1.687 0-3.055-1.392-3.055-3.097v-3.106z"/>
    </g>
</svg>
