<svg xmlns="http://www.w3.org/2000/svg" width="361" height="262" viewBox="0 0 361 262">
    <g fill="none" fill-rule="evenodd">
        <path fill="#F8D559" fill-rule="nonzero" d="M341.571 246.007l-196.333 15.288L.709 226.725l42.605-151.85-18.69-58.613 267.923-.117 68.233 97.67z"/>
        <path fill="#303030" d="M186.997 30.356a3.036 3.036 0 0 1 4.331.004 3.127 3.127 0 0 1-.003 4.384l-1.532 1.548a9.358 9.358 0 0 1 .894 4.008c0 5.136-4.113 9.3-9.187 9.3-5.074 0-9.188-4.164-9.188-9.3 0-5.136 4.114-9.3 9.188-9.3a9.06 9.06 0 0 1 3.963.907l1.534-1.55zM199.875 6.2V3.097c0-1.71 1.36-3.097 3.063-3.097C204.627 0 206 1.374 206 3.097v6.206c0 1.71-1.36 3.097-3.063 3.097h-18.375v6.2c11.84 0 21.438 9.713 21.438 21.7v18.614A3.07 3.07 0 0 1 202.935 62h-42.87c-1.693 0-3.065-1.395-3.065-3.086V40.3c0-11.984 9.593-21.7 21.438-21.7v-6.2h-18.375c-1.692 0-3.063-1.374-3.063-3.097V3.097C157 1.387 158.36 0 160.063 0c1.69 0 3.062 1.374 3.062 3.097V6.2h36.75zm-36.75 34.1l.002 15.5 36.748.014V40.3c0-8.562-6.854-15.5-15.313-15.5h-6.125c-8.46 0-15.312 6.938-15.312 15.5zm18.375 3.1c1.691 0 3.063-1.388 3.063-3.1 0-1.712-1.372-3.1-3.063-3.1s-3.063 1.388-3.063 3.1c0 1.712 1.372 3.1 3.063 3.1z"/>
    </g>
</svg>
