<?xml version="1.0" encoding="UTF-8"?> <svg xmlns="http://www.w3.org/2000/svg" width="200" height="48" viewBox="0 0 200 48"><g fill="#FFF" fill-rule="evenodd"><path d="M37.6 0v18.8H18.8v9.4H37.6V47H47V0h-9.4zM0 18.8V47h28.2v-9.4H9.4V18.8H0zM57 47.487h13.48v-3.579h-9.503V27.581H57v19.906zm23.936-15.355l2.405 7.833h-4.875l2.47-7.833zm-9.002 15.355h4.16l1.29-4.092h7.01l1.255 4.092h4.314l-6.734-19.906h-4.5l-6.795 19.906zm19.023-6.144c0 2.07.717 3.698 2.153 4.882C94.545 47.408 96.516 48 99.022 48c2.454 0 4.353-.6 5.697-1.802 1.345-1.202 2.017-2.713 2.017-4.531 0-1.774-.568-3.129-1.702-4.065-.73-.604-1.828-1.085-3.292-1.446l-3.34-.823c-1.289-.316-2.132-.59-2.529-.824-.617-.352-.926-.882-.926-1.594 0-.774.313-1.378.94-1.81.626-.432 1.464-.648 2.515-.648.944 0 1.733.167 2.37.5.953.504 1.464 1.355 1.535 2.552h3.822c-.07-2.115-.822-3.73-2.255-4.841-1.433-1.112-3.166-1.668-5.196-1.668-2.431 0-4.274.59-5.53 1.77-1.254 1.178-1.881 2.66-1.881 4.442 0 1.954.64 3.39 1.923 4.308.758.55 2.15 1.058 4.174 1.526l2.061.473c1.206.27 2.087.58 2.643.932.555.36.833.869.833 1.526 0 1.126-.567 1.895-1.7 2.31-.599.216-1.377.324-2.334.324-1.6 0-2.73-.41-3.389-1.23-.36-.45-.602-1.13-.725-2.038h-3.796zm32.51-13.762H109.51v19.906h14.423v-3.579h-10.536V38.79h9.245v-3.457h-9.245v-4.228h10.071v-3.524zm11.932 3.457c.817 0 1.43.117 1.84.351.727.414 1.09 1.225 1.09 2.43 0 1.118-.375 1.865-1.127 2.243-.426.216-1.063.324-1.914.324h-4.28v-5.348h4.391zm.826-3.457h-9.104v19.906h3.887v-7.805h3.885c1.107 0 1.862.211 2.265.634.403.423.613 1.27.63 2.539l.026 1.85c.008.585.063 1.157.167 1.715.052.27.138.626.258 1.067h4.39v-.5c-.384-.243-.63-.621-.734-1.134-.07-.324-.105-.94-.105-1.85v-1.337c0-1.395-.183-2.434-.548-3.113-.367-.68-.988-1.204-1.866-1.573 1.05-.378 1.803-1.024 2.26-1.938.455-.914.683-1.844.683-2.79 0-.783-.117-1.48-.352-2.093a6.278 6.278 0 0 0-.957-1.674 4.725 4.725 0 0 0-1.781-1.39c-.702-.316-1.703-.487-3.004-.514zm13.83 19.906v-8.886h7.399v8.886h3.95V27.581h-3.95v7.59h-7.4v-7.59h-3.951v19.906h3.951zm15.172-7.67c0 2.116.314 3.763.94 4.942C167.346 46.92 169.58 48 172.872 48s5.521-1.08 6.69-3.241c.627-1.179.941-2.826.941-4.943V27.581h-4.041v12.226c0 1.367-.155 2.366-.464 2.995-.48 1.116-1.522 1.673-3.126 1.673-1.613 0-2.66-.557-3.14-1.673-.308-.63-.463-1.628-.463-2.995V27.58h-4.041v12.235zm27.099-8.779c.91 0 1.66.103 2.249.31.681.298 1.022.91 1.022 1.837 0 .838-.258 1.42-.774 1.75-.515.328-1.186.492-2.012.492h-4.626v-4.389h4.14zm.543 7.684c.818.01 1.452.122 1.903.338.808.387 1.212 1.099 1.212 2.134 0 1.224-.417 2.053-1.25 2.484-.46.235-1.102.351-1.928.351h-4.621v-5.307h4.684zm.718-11.141h-9.199v19.906h8.577c.967 0 1.863-.09 2.69-.27.825-.18 1.542-.513 2.15-1a5.427 5.427 0 0 0 1.348-1.566c.565-.936.847-1.994.847-3.174 0-1.143-.247-2.115-.741-2.917-.494-.801-1.228-1.386-2.2-1.756.64-.341 1.125-.72 1.453-1.134.587-.738.881-1.715.881-2.93 0-1.18-.291-2.193-.874-3.039-.967-1.377-2.611-2.084-4.932-2.12z"></path></g></svg> 