<?xml version="1.0" encoding="UTF-8"?>
<svg width="32px" height="32px" viewBox="0 0 32 32" version="1.1" xmlns="http://www.w3.org/2000/svg" xmlns:xlink="http://www.w3.org/1999/xlink">
    <!-- Generator: Sketch 52.4 (67378) - http://www.bohemiancoding.com/sketch -->
    <title>Group 6</title>
    <desc>Created with Sketch.</desc>
    <g id="Page-1" stroke="none" stroke-width="1" fill="none" fill-rule="evenodd">
        <g id="BannerSubsite" transform="translate(-399.000000, -139.000000)">
            <g id="Group" transform="translate(0.000000, 130.000000)">
                <g id="Group-2" transform="translate(399.000000, 9.000000)">
                    <g id="Group-6">
                        <g id="trophy" fill="#F8D559" fill-rule="nonzero">
                            <path d="M29.1009424,0 L27.9816754,0 L25.5832461,0 C24.1441885,0 22.3853403,1.59895288 22.3853403,3.19790576 L9.59371728,3.19790576 C9.59371728,1.59895288 7.83486911,0 6.39581152,0 L3.9973822,0 L2.87811518,0 L0,0 L0,14.3905759 C0,15.9895288 1.59895288,17.5884817 3.19790576,17.5884817 L6.71560209,17.5884817 C7.35518325,20.7863874 9.43382199,23.5046073 14.3905759,23.9842932 L14.3905759,27.3420942 C10.8728796,27.6618848 9.59371728,29.420733 9.59371728,31.4993717 L9.59371728,31.9790576 L22.3853403,31.9790576 L22.3853403,31.4993717 C22.3853403,29.420733 21.106178,27.6618848 17.5884817,27.3420942 L17.5884817,23.9842932 C22.5452356,23.5046073 24.6238743,20.7863874 25.2634555,17.5884817 L28.7811518,17.5884817 C30.3801047,17.5884817 31.9790576,15.9895288 31.9790576,14.3905759 L31.9790576,0 L29.1009424,0 Z M3.19790576,14.3905759 L3.19790576,3.19790576 L6.39581152,3.19790576 L6.39581152,6.39581152 L6.39581152,14.3905759 C4.95675393,14.3905759 3.67759162,14.3905759 3.19790576,14.3905759 Z M28.7811518,14.3905759 C28.301466,14.3905759 27.0223037,14.3905759 25.5832461,14.3905759 L25.5832461,6.39581152 L25.5832461,3.19790576 L28.7811518,3.19790576 L28.7811518,14.3905759 Z" id="Shape"></path>
                        </g>
                        <path d="M9.38599534,5.85216218 L9.38599534,15.8260808 C9.38599534,18.7372138 11.745935,21.0971535 14.6570681,21.0971535" id="Path-4" stroke="#FFFFFF" stroke-width="1.33246073"></path>
                        <path d="M17.5884817,23.9842934 L17.5884817,23.9842934 C20.9425763,22.7856504 23.1813059,19.6082112 23.1813059,16.0463723 L23.1813059,3.19790576 L23.1813059,3.19790576 C24.5078608,3.19790576 25.5832461,4.27329099 25.5832461,5.59984589 L25.5832461,15.2895995 L25.5832461,15.989529 C25.5832461,20.4049154 22.0038681,23.9842934 17.5884817,23.9842934 Z" id="Path-5" fill="#C09F2C"></path>
                    </g>
                </g>
            </g>
        </g>
    </g>
</svg>