<svg width="60" height="60" viewBox="0 0 60 60" fill="none" xmlns="http://www.w3.org/2000/svg">
<path d="M27.4219 16.8749H32.5781V29.9999H51.7969C52.4806 29.9999 53.1364 29.7283 53.6199 29.2448C54.1034 28.7613 54.375 28.1055 54.375 27.4218V19.453C54.375 18.7693 54.1034 18.1135 53.6199 17.63C53.1364 17.1465 52.4806 16.8749 51.7969 16.8749H44.7867C45.736 14.9198 45.9571 12.6902 45.4103 10.5867C44.8634 8.48319 43.5845 6.64358 41.8032 5.3983C40.0219 4.15302 37.8549 3.58368 35.6916 3.79253C33.5282 4.00139 31.5102 4.97476 30 6.5378C28.4872 4.98332 26.4709 4.01748 24.3115 3.8129C22.1521 3.60832 19.9903 4.17833 18.2125 5.42105C16.4347 6.66378 15.1567 8.49823 14.6071 10.5965C14.0574 12.6948 14.2719 14.9202 15.2121 16.8749H8.20312C7.51936 16.8749 6.86361 17.1465 6.38012 17.63C5.89662 18.1135 5.625 18.7693 5.625 19.453V27.4218C5.625 28.1055 5.89662 28.7613 6.38012 29.2448C6.61952 29.4842 6.90373 29.6741 7.21652 29.8037C7.52931 29.9332 7.86456 29.9999 8.20312 29.9999H27.4219V16.8749ZM32.5781 12.8905C32.5781 12.1025 32.8118 11.3322 33.2496 10.6769C33.6874 10.0217 34.3097 9.51102 35.0377 9.20945C35.7658 8.90788 36.5669 8.82898 37.3398 8.98272C38.1127 9.13645 38.8227 9.51593 39.3799 10.0732C39.9371 10.6304 40.3166 11.3403 40.4703 12.1132C40.6241 12.8861 40.5451 13.6872 40.2436 14.4153C39.942 15.1433 39.4313 15.7656 38.7761 16.2034C38.1209 16.6412 37.3505 16.8749 36.5625 16.8749H32.5781V12.8905ZM19.4531 12.8905C19.4531 11.8338 19.8729 10.8204 20.6201 10.0732C21.3673 9.32594 22.3808 8.90616 23.4375 8.90616C24.4942 8.90616 25.5077 9.32594 26.2549 10.0732C27.0021 10.8204 27.4219 11.8338 27.4219 12.8905V16.8749H23.4375C22.3808 16.8749 21.3673 16.4551 20.6201 15.7079C19.8729 14.9607 19.4531 13.9473 19.4531 12.8905V12.8905Z" fill="black"/>
<path d="M32.5781 56.25H48.0469C48.7306 56.25 49.3864 55.9784 49.8699 55.4949C50.3534 55.0114 50.625 54.3556 50.625 53.6719V33.75H32.5781V56.25Z" fill="black"/>
<path d="M9.375 53.6719C9.375 54.3556 9.64662 55.0114 10.1301 55.4949C10.6136 55.9784 11.2694 56.25 11.9531 56.25H27.4219V33.75H9.375V53.6719Z" fill="black"/>
</svg>
