<?xml version="1.0" encoding="UTF-8"?>
<svg width="16px" height="16px" viewBox="0 0 16 16" version="1.1" xmlns="http://www.w3.org/2000/svg" xmlns:xlink="http://www.w3.org/1999/xlink">
    <!-- Generator: Sketch 58 (84663) - https://sketch.com -->
    <title>icon/social/twitter/20 copy</title>
    <desc>Created with Sketch.</desc>
    <defs>
        <path d="M16.6875,2.5 L3.3125,2.5 C2.86657621,2.50670675 2.50670675,2.86657621 2.5,3.3125 L2.5,16.6875 C2.50670675,17.1334238 2.86657621,17.4932932 3.3125,17.5 L10.5,17.5 L10.5,11.6875 L8.5625,11.6875 L8.5625,9.4375 L10.5,9.4375 L10.5,7.75 C10.5,5.8125 11.6875,4.75 13.4375,4.75 C14.25,4.75 15,4.8125 15.1875,4.8125 L15.1875,6.875 L14,6.875 C13.0625,6.875 12.875,7.3125 12.875,8 L12.875,9.4375 L15.125,9.4375 L14.8125,11.6875 L12.875,11.6875 L12.875,17.5 L16.6875,17.5 C17.1334238,17.4932932 17.4932932,17.1334238 17.5,16.6875 L17.5,3.3125 C17.4932932,2.86657621 17.1334238,2.50670675 16.6875,2.5 Z" id="path-1"></path>
    </defs>
    <g id="Page-1" stroke="none" stroke-width="1" fill="none" fill-rule="evenodd">
        <g id="icon/social/facebook/20" transform="translate(-2.000000, -2.000000)">
            <mask id="mask-2" fill="white">
                <use xlink:href="#path-1"></use>
            </mask>
            <use id="icon-color" fill="#FFFFFF" fill-rule="nonzero" xlink:href="#path-1"></use>
        </g>
    </g>
</svg>