<?xml version="1.0" encoding="UTF-8"?>
<svg width="17px" height="17px" viewBox="0 0 17 17" version="1.1" xmlns="http://www.w3.org/2000/svg" xmlns:xlink="http://www.w3.org/1999/xlink">
    <!-- Generator: Sketch 58 (84663) - https://sketch.com -->
    <title>Shape</title>
    <desc>Created with Sketch.</desc>
    <g id="Page-1" stroke="none" stroke-width="1" fill="none" fill-rule="evenodd">
        <g id="icons8-instagram_new_filled" fill="#FFFFFF" fill-rule="nonzero">
            <path d="M5.02272727,0 C2.2525,0 0,2.2525 0,5.02272727 L0,11.9772727 C0,14.7475 2.2525,17 5.02272727,17 L11.9772727,17 C14.7475,17 17,14.7475 17,11.9772727 L17,5.02272727 C17,2.2525 14.7475,0 11.9772727,0 L5.02272727,0 Z M13.4210526,2.68421053 C13.9131579,2.68421053 14.3157895,3.08684211 14.3157895,3.57894737 C14.3157895,4.07105263 13.9131579,4.47368421 13.4210526,4.47368421 C12.9289474,4.47368421 12.5263158,4.07105263 12.5263158,3.57894737 C12.5263158,3.08684211 12.9289474,2.68421053 13.4210526,2.68421053 Z M8.94736842,4.47368421 C11.4160287,4.47368421 13.4210526,6.47870813 13.4210526,8.94736842 C13.4210526,11.4160287 11.4160287,13.4210526 8.94736842,13.4210526 C6.47870813,13.4210526 4.47368421,11.4160287 4.47368421,8.94736842 C4.47368421,6.47870813 6.47870813,4.47368421 8.94736842,4.47368421 Z M8.94736842,5.36842105 C6.97497076,5.36842105 5.36842105,6.97497076 5.36842105,8.94736842 C5.36842105,10.9197661 6.97497076,12.5263158 8.94736842,12.5263158 C10.9197661,12.5263158 12.5263158,10.9197661 12.5263158,8.94736842 C12.5263158,6.97497076 10.9197661,5.36842105 8.94736842,5.36842105 Z" id="Shape"></path>
        </g>
    </g>
</svg>