<?xml version="1.0" encoding="UTF-8"?>
<svg width="16px" height="16px" viewBox="0 0 16 16" version="1.1" xmlns="http://www.w3.org/2000/svg" xmlns:xlink="http://www.w3.org/1999/xlink">
    <!-- Generator: Sketch 58 (84663) - https://sketch.com -->
    <title>icon/social/twitter/20 copy 2</title>
    <desc>Created with Sketch.</desc>
    <defs>
        <path d="M5.875,17.5 L2.75,17.5 L2.75,7.4375 L5.875,7.4375 L5.875,17.5 Z M4.3125,6.125 C3.31148389,6.125 2.5,5.31351611 2.5,4.3125 C2.5,3.31148389 3.31148389,2.5 4.3125,2.5 C5.31351611,2.5 6.125,3.31148389 6.125,4.3125 C6.125,4.79320489 5.93404073,5.25422135 5.59413104,5.59413104 C5.25422135,5.93404073 4.79320489,6.125 4.3125,6.125 Z M17.5,17.5 L14.375,17.5 L14.375,12.625 C14.375,11.4375 14.375,10 12.75,10 C11.125,10 10.875,11.25 10.875,12.5625 L10.875,17.5625 L7.75,17.5625 L7.75,7.4375 L10.75,7.4375 L10.75,8.875 L10.8125,8.875 C11.392906,7.80873714 12.5383159,7.17510613 13.75,7.25 C16.875,7.25 17.5,9.3125 17.5,12 L17.5,17.5 Z" id="path-1"></path>
    </defs>
    <g id="Page-1" stroke="none" stroke-width="1" fill="none" fill-rule="evenodd">
        <g id="icon/social/linkedin/16" transform="translate(-2.000000, -2.000000)">
            <mask id="mask-2" fill="white">
                <use xlink:href="#path-1"></use>
            </mask>
            <use id="icon-color" fill="#FFFFFF" fill-rule="nonzero" xlink:href="#path-1"></use>
        </g>
    </g>
</svg>