<?xml version="1.0" encoding="UTF-8"?>
<svg width="18px" height="16px" viewBox="0 0 18 16" version="1.1" xmlns="http://www.w3.org/2000/svg" xmlns:xlink="http://www.w3.org/1999/xlink">
    <!-- Generator: Sketch 58 (84663) - https://sketch.com -->
    <title>icon/social/twitter/20</title>
    <desc>Created with Sketch.</desc>
    <defs>
        <path d="M18.75,4.5625 C18.1047793,4.88012235 17.4046368,5.0710703 16.6875,5.125 C17.4495942,4.68803661 18.0104209,3.97017831 18.25,3.125 C17.5560546,3.54420305 16.7948369,3.84023218 16,4 C14.9956477,2.93424004 13.4436076,2.58735089 12.0810856,3.12410197 C10.7185637,3.66085305 9.82011691,4.9730855 9.8125,6.4375 C9.8125,6.75 9.875,7 9.875,7.25 C6.98844368,7.13144035 4.29637138,5.76259003 2.5,3.5 C2.17466574,4.07152106 2.00243845,4.7173734 2,5.375 C1.98820549,6.58828542 2.60232823,7.72205048 3.625,8.375 C3.05698561,8.35547555 2.50103713,8.20579711 2,7.9375 L2,8 C1.99786339,9.70413603 3.20289639,11.1711327 4.875,11.5 C4.5673477,11.5722682 4.25333951,11.6141359 3.9375,11.625 C3.70656328,11.635272 3.47529854,11.6142479 3.25,11.5625 C3.73324475,13.0256114 5.08456789,14.0265915 6.625,14.0625 C5.35674534,15.0550301 3.79782378,15.6039462 2.1875,15.625 C1.89444092,15.6353272 1.60111604,15.6143754 1.3125,15.5625 C2.95559539,16.6126782 4.86249837,17.1760814 6.8125,17.1875 C13.4375,17.1875 17,11.6875 17,7 L17,6.5625 C17.6650664,5.97202726 18.2530358,5.30006216 18.75,4.5625 Z" id="path-1"></path>
    </defs>
    <g id="Page-1" stroke="none" stroke-width="1" fill="none" fill-rule="evenodd">
        <g id="icon/social/twitter/20" transform="translate(-1.000000, -2.000000)">
            <mask id="mask-2" fill="white">
                <use xlink:href="#path-1"></use>
            </mask>
            <use id="icon-color" fill="#FFFFFF" fill-rule="nonzero" xlink:href="#path-1"></use>
        </g>
    </g>
</svg>