<?xml version="1.0" encoding="UTF-8"?>
<svg width="17px" height="17px" viewBox="0 0 17 17" version="1.1" xmlns="http://www.w3.org/2000/svg" xmlns:xlink="http://www.w3.org/1999/xlink">
    <!-- Generator: Sketch 58 (84663) - https://sketch.com -->
    <title>Shape</title>
    <desc>Created with Sketch.</desc>
    <g id="Page-1" stroke="none" stroke-width="1" fill="none" fill-rule="evenodd">
        <g id="icons8-xing" fill="#FFFFFF" fill-rule="nonzero">
            <path d="M15.3,0 L1.7,0 C0.7636723,0 0,0.7636723 0,1.7 L0,15.3 C0,16.2363285 0.7636723,17 1.7,17 L15.3,17 C16.2363285,17 17,16.2363285 17,15.3 L17,1.7 C17,0.7636723 16.2363285,0 15.3,0 Z M5.4386723,11.1363285 L3.56933615,11.1363285 C3.4,11.1363285 3.3136723,10.9636723 3.4,10.7943361 L5.35566385,7.225 C5.35566385,7.1386723 5.35566385,7.05566385 5.35566385,7.05566385 L4.08066385,4.84433615 C3.99433615,4.675 4.08066385,4.50566385 4.25,4.50566385 L6.11933615,4.50566385 C6.20566385,4.50566385 6.2886723,4.50566385 6.2886723,4.5886723 L7.73632855,7.05566385 C7.73632855,7.1386723 7.73632855,7.225 7.73632855,7.225 L5.61132855,11.05 C5.61132855,11.1363285 5.525,11.1363285 5.4386723,11.1363285 Z M13.6,2.8886723 L9.86132855,9.775 C9.86132855,9.86132855 9.86132855,9.94433615 9.86132855,9.94433615 L12.325,14.1943361 C12.4113286,14.3636723 12.325,14.5363285 12.1556639,14.5363285 L10.2,14.5363285 C10.1136723,14.5363285 10.0306639,14.5363285 10.0306639,14.45 L7.48066385,10.0306638 C7.48066385,9.94433615 7.48066385,9.86132855 7.48066385,9.86132855 L11.3886723,2.80566385 C11.3886723,2.55 11.475,2.55 11.5613286,2.55 L13.4306639,2.55 C13.5136723,2.55 13.6863285,2.71933615 13.6,2.8886723 Z" id="Shape"></path>
        </g>
    </g>
</svg>